<?xml version="1.0" encoding="utf-8"?>
<!-- Generator: Adobe Illustrator 25.0.0, SVG Export Plug-In . SVG Version: 6.00 Build 0)  -->
<svg version="1.1" id="Capa_1" xmlns="http://www.w3.org/2000/svg" xmlns:xlink="http://www.w3.org/1999/xlink" x="0px" y="0px"
	 viewBox="0 0 512 512" style="enable-background:new 0 0 512 512;" xml:space="preserve">
<style type="text/css">
	.st0{fill:#87878C;}
</style>
<path class="st0" d="M18.8,210.7c25-25,65.5-25,90.5,0s25,65.5,0,90.5s-65.5,25-90.5,0C-6.1,276.3-6.1,235.7,18.8,210.7"/>
<path class="st0" d="M210.8,210.7c25-25,65.5-25,90.5,0s25,65.5,0,90.5c-25,25-65.5,25-90.5,0C185.9,276.3,185.9,235.7,210.8,210.7"
	/>
<path class="st0" d="M402.8,210.7c25-25,65.5-25,90.5,0c25,25,25,65.5,0,90.5s-65.5,25-90.5,0C377.9,276.3,377.9,235.7,402.8,210.7"
	/>
</svg>
