<?xml version="1.0" encoding="utf-8"?>
<!-- Generator: Adobe Illustrator 23.0.2, SVG Export Plug-In . SVG Version: 6.00 Build 0)  -->
<svg version="1.1" id="Capa_1" xmlns="http://www.w3.org/2000/svg" xmlns:xlink="http://www.w3.org/1999/xlink" x="0px" y="0px"
	 viewBox="0 0 55.8 55.8" style="enable-background:new 0 0 55.8 55.8;" xml:space="preserve">
<style type="text/css">
	.st0{fill:#87878C;}
</style>
<g>
	<path class="st0" d="M43,23.9c-0.3-0.3-0.6-0.5-0.9-0.7L20.5,1.6c-2.1-2.1-5.5-2.1-7.6,0c-2.1,2.1-2.1,5.5,0,7.6l18.6,18.6
		L12.8,46.5c-2.1,2.1-2.1,5.5,0,7.6c1.1,1.1,2.4,1.6,3.8,1.6s2.8-0.5,3.8-1.6l21.7-21.7c0.3-0.2,0.6-0.4,0.9-0.7
		c1.1-1.1,1.6-2.5,1.6-3.9C44.6,26.4,44.1,25,43,23.9z"/>
</g>
</svg>
